<?xml version="1.0" encoding="UTF-8" standalone="no"?>
<!-- Created with Inkscape (http://www.inkscape.org/) -->

<svg
   version="1.1"
   id="svg1"
   width="1587.4"
   height="1122.52"
   viewBox="0 0 1587.4 1122.52"
   sodipodi:docname="Design Diagram.svg"
   inkscape:version="1.3.2 (091e20e, 2023-11-25, custom)"
   xmlns:inkscape="http://www.inkscape.org/namespaces/inkscape"
   xmlns:sodipodi="http://sodipodi.sourceforge.net/DTD/sodipodi-0.dtd"
   xmlns="http://www.w3.org/2000/svg"
   xmlns:svg="http://www.w3.org/2000/svg">
  <defs
     id="defs1" />
  <sodipodi:namedview
     id="namedview1"
     pagecolor="#ffffff"
     bordercolor="#000000"
     borderopacity="0.25"
     inkscape:showpageshadow="2"
     inkscape:pageopacity="0.0"
     inkscape:pagecheckerboard="0"
     inkscape:deskcolor="#d1d1d1"
     inkscape:zoom="0.99150664"
     inkscape:cx="889.05103"
     inkscape:cy="474.53036"
     inkscape:window-width="1920"
     inkscape:window-height="1001"
     inkscape:window-x="-9"
     inkscape:window-y="-9"
     inkscape:window-maximized="1"
     inkscape:current-layer="layer3">
    <inkscape:page
       x="0"
       y="0"
       inkscape:label="1"
       id="page1"
       width="1587.4"
       height="1122.52"
       margin="0"
       bleed="0" />
  </sodipodi:namedview>
  <g
     inkscape:groupmode="layer"
     id="layer3"
     inkscape:label="Labels">
    <rect
       style="fill:none;fill-opacity:0.992157;stroke:#000000;stroke-width:1.824;stroke-linecap:square;stroke-linejoin:round;stroke-dasharray:1.824,5.47200068;paint-order:markers fill stroke;stroke-dashoffset:0"
       id="rect39"
       width="76.651024"
       height="35.299812"
       x="736.25323"
       y="258.19293" />
    <rect
       style="fill:none;fill-opacity:0.992157;stroke:#000000;stroke-width:1.824;stroke-linecap:square;stroke-linejoin:round;stroke-dasharray:1.824, 5.472;stroke-dashoffset:0;paint-order:markers fill stroke"
       id="rect40"
       width="95.813782"
       height="86.736687"
       x="726.1676"
       y="677.75641" />
    <rect
       style="fill:none;fill-opacity:0.992157;stroke:#000000;stroke-width:1.824;stroke-linecap:square;stroke-linejoin:round;stroke-dasharray:1.824, 5.472;stroke-dashoffset:0;paint-order:markers fill stroke"
       id="rect41"
       width="80.685287"
       height="169.4391"
       x="823.99854"
       y="283.40707" />
    <rect
       style="fill:none;fill-opacity:0.992157;stroke:#000000;stroke-width:1.824;stroke-linecap:square;stroke-linejoin:round;stroke-dasharray:1.824, 5.472;stroke-dashoffset:0;paint-order:markers fill stroke"
       id="rect42"
       width="28.239851"
       height="35.299812"
       x="934.9408"
       y="284.41565" />
    <path
       style="fill:none;fill-opacity:0.992157;stroke:#000000;stroke-width:0.924;stroke-linecap:square;stroke-linejoin:round;stroke-dasharray:none;stroke-dashoffset:0;paint-order:markers fill stroke"
       d="M 876.44395,282.39852 956.12067,196.6704"
       id="path43" />
    <path
       style="fill:none;fill-opacity:0.992157;stroke:#000000;stroke-width:0.924;stroke-linecap:square;stroke-linejoin:round;stroke-dasharray:none;stroke-dashoffset:0;paint-order:markers fill stroke"
       d="M 736.25326,258.19293 694.90205,199.69609"
       id="path44" />
    <path
       style="fill:none;fill-opacity:0.992157;stroke:#000000;stroke-width:0.924;stroke-linecap:square;stroke-linejoin:round;stroke-dasharray:none;stroke-dashoffset:0;paint-order:markers fill stroke"
       d="M 963.18064,304.58696 H 1069.0801"
       id="path45" />
    <path
       style="fill:none;fill-opacity:0.992157;stroke:#000000;stroke-width:0.924;stroke-linecap:square;stroke-linejoin:round;stroke-dasharray:none;stroke-dashoffset:0;paint-order:markers fill stroke"
       d="m 819.96425,766.51025 26.22272,58.49683"
       id="path46" />
    <rect
       style="fill:none;fill-opacity:0.992157;stroke:#000000;stroke-width:1.184;stroke-linecap:square;stroke-linejoin:round;stroke-dasharray:1.18400002,7.10400009;stroke-dashoffset:0.47360001;paint-order:markers fill stroke"
       id="rect47"
       width="556.72852"
       height="148.25928"
       x="498.23166"
       y="637.41382"
       ry="43.368313" />
    <path
       style="fill:none;fill-opacity:0.992157;stroke:#000000;stroke-width:1.184;stroke-linecap:square;stroke-linejoin:round;stroke-dasharray:none;stroke-dashoffset:0.4736;paint-order:markers fill stroke"
       d="m 959.14637,636.40522 57.48823,-42.35978"
       id="path47" />
    <text
       xml:space="preserve"
       style="font-size:13.8554px;font-family:Arial;-inkscape-font-specification:Arial;text-align:center;text-anchor:middle;fill:none;fill-opacity:0.992157;stroke:#000000;stroke-width:1.06;stroke-linecap:square;stroke-linejoin:round;stroke-dasharray:none;stroke-dashoffset:0.4736;paint-order:markers fill stroke"
       x="640.23358"
       y="184.0392"
       id="text47"><tspan
         sodipodi:role="line"
         x="640.23358"
         y="184.0392"
         id="tspan49"
         style="stroke-width:1.06;stroke-dasharray:none">Gel Diaphragm</tspan></text>
    <text
       xml:space="preserve"
       style="font-size:13.8554px;font-family:Arial;-inkscape-font-specification:Arial;text-align:center;text-anchor:middle;fill:none;fill-opacity:0.992157;stroke:#000000;stroke-width:1.06;stroke-linecap:square;stroke-linejoin:round;stroke-dasharray:none;stroke-dashoffset:0.4736;paint-order:markers fill stroke"
       x="963.00732"
       y="189.16719"
       id="text47-1"><tspan
         sodipodi:role="line"
         x="963.00732"
         y="189.16719"
         id="tspan49-1"
         style="stroke-width:1.06;stroke-dasharray:none">Double Phase Guide</tspan></text>
    <text
       xml:space="preserve"
       style="font-size:13.8554px;font-family:Arial;-inkscape-font-specification:Arial;text-align:center;text-anchor:middle;fill:none;fill-opacity:0.992157;stroke:#000000;stroke-width:1.06;stroke-linecap:square;stroke-linejoin:round;stroke-dasharray:none;stroke-dashoffset:0.4736;paint-order:markers fill stroke"
       x="1013.4357"
       y="587.55078"
       id="text47-7"><tspan
         sodipodi:role="line"
         x="1013.4357"
         y="587.55078"
         id="tspan49-6"
         style="stroke-width:1.06;stroke-dasharray:none">PDMS Material</tspan></text>
    <text
       xml:space="preserve"
       style="font-size:13.8554px;font-family:Arial;-inkscape-font-specification:Arial;text-align:center;text-anchor:middle;fill:none;fill-opacity:0.992157;stroke:#000000;stroke-width:1.06;stroke-linecap:square;stroke-linejoin:round;stroke-dasharray:none;stroke-dashoffset:0.4736;paint-order:markers fill stroke"
       x="867.19354"
       y="840.70087"
       id="text47-5"><tspan
         sodipodi:role="line"
         x="867.19354"
         y="840.70087"
         id="tspan49-4"
         style="stroke-width:1.06;stroke-dasharray:none">Enlarged Gel Chamber</tspan></text>
    <text
       xml:space="preserve"
       style="font-size:13.8554px;font-family:Arial;-inkscape-font-specification:Arial;text-align:center;text-anchor:middle;fill:none;fill-opacity:0.992157;stroke:#000000;stroke-width:1.06;stroke-linecap:square;stroke-linejoin:round;stroke-dasharray:none;stroke-dashoffset:0.4736;paint-order:markers fill stroke"
       x="1116.3093"
       y="310.19513"
       id="text47-71"><tspan
         sodipodi:role="line"
         x="1116.3093"
         y="310.19513"
         id="tspan49-47"
         style="stroke-width:1.06;stroke-dasharray:none">Media Inlets</tspan></text>
  </g>
  <g
     id="g1"
     inkscape:groupmode="layer"
     inkscape:label="Diagram"
     sodipodi:insensitive="true">
    <path
       id="path1"
       d="m 0,0 -0.1,-0.1 -0.1,-0.1 -0.1,-0.1 h -0.1 v -0.1 h -0.1 m 0,-19.1 h 0.1 v -0.1 h 0.1 l 0.1,-0.1 0.1,-0.1 0.1,-0.1 M 19.8,79.3 V 0 m 0,0 H 0 M 103.8,-19.9 V 99.2 M 0,0 -0.1,-0.1 -0.2,-0.2 -0.3,-0.3 h -0.1 v -0.1 h -0.1 m 268.2,-19.1 h -0.1 l -0.1,-0.1 -0.1,-0.1 -0.1,-0.1 h -0.1 v -0.1 m 0,0 h -2.3 m -265.4,0.4 h 0.1 v -0.1 h 0.1 l 0.1,-0.1 0.1,-0.1 0.1,-0.1 m 0,0 H 103.8 M 267.2,0 v -0.1 h 0.1 l 0.1,-0.1 0.1,-0.1 0.1,-0.1 h 0.1 m 0,0 -0.4,0.1 -0.3,0.1 h -0.3 l -0.4,0.1 H 266 265.6 L 265.3,0 h -0.4 m 0,0 h 2.3 M 332,-34.8 H -64.8 m 168.6,12.5 v 2.4 M -64.8,-34.8 v 148.9 m 396.8,0 V -34.8 m -329.8,14.9 -1.7,0.2 -1.7,0.4 -1.5,0.8 -1.4,1 -1.3,1.2 -1,1.4 -0.7,1.6 -0.4,1.6 -0.2,1.8 0.2,1.7 0.4,1.6 0.7,1.6 1,1.4 1.3,1.3 1.4,0.9 1.5,0.8 1.7,0.4 1.7,0.2 1.8,-0.2 1.6,-0.4 1.6,-0.8 1.4,-0.9 1.2,-1.3 1,-1.4 0.8,-1.6 0.4,-1.6 0.2,-1.7 -0.2,-1.8 -0.4,-1.6 -0.8,-1.6 -1,-1.4 -1.2,-1.2 -1.4,-1 L 5.6,-19.3 4,-19.7 2.2,-19.9 M 332,114.1 H -64.8 m 332.5,-133.6 1.7,0.7 1.5,0.9 1.4,1.3 1.1,1.4 0.8,1.7 0.5,1.7 0.2,1.9 -0.2,1.8 -0.5,1.7 -0.8,1.7 -1.1,1.4 -1.4,1.3 -1.5,0.9 -1.7,0.7 m -20.4,79.7 h 19.9 m 0,0 v 0.1 h 0.1 l 0.1,0.1 0.1,0.1 0.1,0.1 h 0.1 m 0,19.1 -0.1,0.1 h -0.1 V 99 h -0.1 l -0.1,0.1 h -0.1 v 0.1 m 0,0 H 163.3 m 0,-121.5 -3.9,-2 -4.1,-1.6 -4.2,-1.4 -4.3,-1.1 -4.4,-0.8 -4.4,-0.4 -4.4,-0.2 -4.4,0.2 -4.4,0.4 -4.4,0.8 -4.3,1.1 -4.2,1.4 -4.1,1.6 -4,2 m 113.8,2.4 V 99.2 m 0,0 h 9.9 M 200.4,-19.9 V 99.2 m 0,0 h 17.2 M 180.5,-19.9 V 99.2 m 0,0 h 10 m 74.4,-119.1 h 0.4 l 0.3,0.1 h 0.4 0.3 l 0.4,0.1 h 0.3 l 0.3,0.1 0.4,0.1 m 0,0 h -0.1 l -0.1,-0.1 -0.1,-0.1 -0.1,-0.1 h -0.1 v -0.1 m 0,0 H 163.3 m 0,0 h 17.2 m 0,0 h 10 m 0,0 h 9.9 m 0,0 h 17.2 m -27.1,0 V 99.2 m 37,-119.1 V 99.2 M 267.2,0 v -0.1 h 0.1 l 0.1,-0.1 0.1,-0.1 0.1,-0.1 h 0.1 m -2.8,99.6 1.8,-0.2 1.6,-0.4 1.6,-0.7 1.4,-1 1.2,-1.3 1,-1.4 0.8,-1.5 0.4,-1.7 0.2,-1.7 -0.2,-1.8 -0.4,-1.6 -0.8,-1.6 -1,-1.4 -1.2,-1.2 -1.4,-1 -1.6,-0.8 -1.6,-0.4 -1.8,-0.2 -1.7,0.2 -1.7,0.4 -1.5,0.8 -1.4,1 -1.3,1.2 -1,1.4 -0.7,1.6 -0.4,1.6 -0.2,1.8 0.2,1.7 0.4,1.7 0.7,1.5 1,1.4 1.3,1.3 1.4,1 1.5,0.7 1.7,0.4 1.7,0.2 M 247.3,0 h 19.9 M 163.3,-19.9 v -2.4 m 27.2,2.4 V 99.2 m 0,0 h 9.9 m -37.1,0 v 2.5 m 0,0 -3.9,1.9 -4.1,1.7 -4.2,1.3 -4.3,1.1 -4.4,0.8 -4.4,0.5 -4.4,0.1 -4.4,-0.1 -4.4,-0.5 -4.4,-0.8 -4.3,-1.1 -4.2,-1.3 -4.1,-1.7 -4,-1.9 m 0,0 V 99.2 M 247.3,0 h 17.6 M 39.7,-19.9 V 99.2 M 49.6,-19.9 H 39.7 M -0.5,98.8 -2.2,98.1 -3.8,97.2 -5.1,95.9 -6.2,94.5 -7,92.8 -7.5,91.1 -7.7,89.3 -7.5,87.4 -7,85.7 -6.2,84 l 1.1,-1.4 1.3,-1.2 1.6,-1 1.7,-0.7 M -64.8,-34.8 v 148.9 m 396.8,0 V -34.8 m 0,0 H -64.8 m 329.7,14.9 1.8,0.2 1.6,0.4 1.6,0.8 1.4,1 1.2,1.2 1,1.4 0.8,1.6 0.4,1.6 0.2,1.8 -0.2,1.7 -0.4,1.6 -0.8,1.6 -1,1.4 -1.2,1.3 -1.4,0.9 -1.6,0.8 -1.6,0.4 -1.8,0.2 -1.7,-0.2 -1.7,-0.4 -1.5,-0.8 -1.4,-0.9 -1.3,-1.3 -1,-1.4 -0.7,-1.6 -0.4,-1.6 -0.2,-1.7 0.2,-1.8 0.4,-1.6 0.7,-1.6 1,-1.4 1.3,-1.2 1.4,-1 1.5,-0.8 1.7,-0.4 1.7,-0.2 m -188.2,0 V 99.2 M 66.8,-19.9 V 99.2 m 9.9,-119.1 h -9.9 m -17.2,0 V 99.2 M 66.8,-19.9 H 49.6 M 0,-19.9 H 2.2 M 264.9,0 l -1.7,-0.2 -1.7,-0.4 -1.5,-0.8 -1.4,-0.9 -1.3,-1.3 -1,-1.4 -0.7,-1.6 -0.4,-1.6 -0.2,-1.7 0.2,-1.8 0.4,-1.6 0.7,-1.6 1,-1.4 1.3,-1.2 1.4,-1 1.5,-0.8 1.7,-0.4 1.7,-0.2 m 0,0 h -37.4 m -150.8,0 V 99.2 m 9.9,-119.1 h -9.9 m -37,0 V 99.2 M 19.8,79.3 V 0 M 163.3,-19.9 V 99.2 m 0,0 h 17.2 M 19.8,79.3 H 2.2 m 0,0 1.8,0.2 1.6,0.4 1.6,0.8 1.4,1 1.2,1.2 1,1.4 0.8,1.6 0.4,1.6 0.2,1.8 -0.2,1.7 -0.4,1.7 -0.8,1.5 -1,1.4 -1.2,1.3 -1.4,1 L 5.6,98.6 4,99 2.2,99.2 m 0,0 h 37.5 m -40.2,-99.6 0.3,0.1 0.4,0.1 h 0.3 l 0.4,0.1 H 1.2 1.5 L 1.9,0 h 0.3 m 0,0 1.8,-0.2 1.6,-0.4 1.6,-0.8 1.4,-0.9 1.2,-1.3 1,-1.4 0.8,-1.6 0.4,-1.6 0.2,-1.7 -0.2,-1.8 -0.4,-1.6 -0.8,-1.6 -1,-1.4 -1.2,-1.2 -1.4,-1 -1.6,-0.8 -1.6,-0.4 -1.8,-0.2 m 215.4,0 h 9.9 M 0,79.3 l -0.1,0.1 -0.1,0.1 -0.1,0.1 h -0.1 v 0.1 H -0.5 M 19.8,0 H 2.2 M 247.3,79.3 V 0 M 227.5,-19.9 V 99.2 M 247.3,79.3 V 0 M -0.5,79.7 -0.2,79.6 h 0.4 l 0.3,-0.1 0.4,-0.1 h 0.3 0.3 l 0.4,-0.1 h 0.3 m 0,0 H 0 m 0,0 -0.1,0.1 -0.1,0.1 -0.1,0.1 h -0.1 v 0.1 h -0.1 m 268.2,19.1 -0.1,0.1 h -0.1 V 99 h -0.1 l -0.1,0.1 h -0.1 v 0.1 M 332,114.1 H -64.8 M 2.2,99.2 H 1.9 1.5 L 1.2,99.1 H 0.9 L 0.5,99 H 0.2 l -0.4,-0.1 -0.3,-0.1 m 0,0 0.1,0.1 0.1,0.1 h 0.1 l 0.1,0.1 0.1,0.1 m 0,0 H 2.2 M 86.6,-19.9 V 99.2 M 103.8,-19.9 H 86.6 m 76.7,121.6 -3.9,1.9 -4.1,1.7 -4.2,1.3 -4.3,1.1 -4.4,0.8 -4.4,0.5 -4.4,0.1 -4.4,-0.1 -4.4,-0.5 -4.4,-0.8 -4.3,-1.1 -4.2,-1.3 -4.1,-1.7 -4,-1.9 M 247.3,79.3 h 17.6 m 0,0 h 2.3 m 0,0 v 0.1 h 0.1 l 0.1,0.1 0.1,0.1 0.1,0.1 h 0.1 M 103.8,99.2 H 86.6 m 0,0 h -9.9 m 0,0 h -9.9 m 0,0 H 49.6 m 0,0 h -9.9 m 123.6,2.5 v -124 M 264.9,99.2 h 0.4 0.3 l 0.4,-0.1 h 0.3 l 0.4,-0.1 h 0.3 l 0.3,-0.1 0.4,-0.1 m -268.2,0 0.1,0.1 0.1,0.1 h 0.1 l 0.1,0.1 0.1,0.1 M 19.8,79.3 H 0 M 2.2,-19.9 H 1.9 l -0.4,0.1 H 1.2 0.9 l -0.4,0.1 H 0.2 l -0.4,0.1 -0.3,0.1 m 0,0 -1.7,0.7 -1.6,0.9 -1.3,1.3 -1.1,1.4 -0.8,1.7 -0.5,1.7 -0.2,1.9 0.2,1.8 0.5,1.7 0.8,1.7 1.1,1.4 1.3,1.3 1.6,0.9 1.7,0.7 m 163.8,-21.9 -3.9,-2 -4.1,-1.6 -4.2,-1.4 -4.3,-1.1 -4.4,-0.8 -4.4,-0.4 -4.4,-0.2 -4.4,0.2 -4.4,0.4 -4.4,0.8 -4.3,1.1 -4.2,1.4 -4.1,1.6 -4,2 m 0,0 v 124 M 2.2,99.2 0.5,99 l -1.7,-0.4 -1.5,-0.7 -1.4,-1 -1.3,-1.3 -1,-1.4 -0.7,-1.5 -0.4,-1.7 -0.2,-1.7 0.2,-1.8 0.4,-1.6 0.7,-1.6 1,-1.4 1.3,-1.2 1.4,-1 1.5,-0.8 1.7,-0.4 1.7,-0.2 1.8,0.2 1.6,0.4 1.6,0.8 1.4,1 1.2,1.2 1,1.4 0.8,1.6 0.4,1.6 0.2,1.8 -0.2,1.7 -0.4,1.7 -0.8,1.5 -1,1.4 -1.2,1.3 -1.4,1 L 5.6,98.6 4,99 2.2,99.2 M 2.2,0 H 0 m 2.2,-19.9 h 37.5 m 228,118.7 1.7,-0.7 1.5,-0.9 1.4,-1.3 1.1,-1.4 0.8,-1.7 0.5,-1.7 0.2,-1.8 -0.2,-1.9 -0.5,-1.7 -0.8,-1.7 -1.1,-1.4 -1.4,-1.2 -1.5,-1 -1.7,-0.7 m 0,0 -0.4,-0.1 H 267 l -0.3,-0.1 -0.4,-0.1 h -0.3 -0.4 l -0.3,-0.1 h -0.4 m 0,0 -1.7,0.2 -1.7,0.4 -1.5,0.8 -1.4,1 -1.3,1.2 -1,1.4 -0.7,1.6 -0.4,1.6 -0.2,1.8 0.2,1.7 0.4,1.7 0.7,1.5 1,1.4 1.3,1.3 1.4,1 1.5,0.7 1.7,0.4 1.7,0.2 m 0,0 h -37.4 m 39.7,0 h -2.3 M 0,99.2 h 103.8"
       style="fill:none;stroke:#000000;stroke-width:0.709;stroke-linecap:round;stroke-linejoin:round;stroke-miterlimit:10;stroke-dasharray:none;stroke-opacity:1"
       transform="matrix(1.3333333,0,0,-1.3333333,596.66667,423.18667)" />
    <path
       id="path2"
       d="m 0,0 v 0 m 0,-19.1 v 0 m 0.5,-0.4 v 0 m 103.8,-2.4 v 0 m 163.9,2.8 v 0 m -163.9,-0.4 v 0 M -64.3,-34.4 v 0 m 396.8,148.9 v 0 m 0,-148.9 v 0 m -168.7,12.5 v 0 m 103.9,2.4 v 0 m -103.9,0 v 0 m 27.2,0 v 0 m 0,119.1 v 0 m 37,-119.1 v 0 M 268.2,0 v 0 m -20.4,0.4 v 0 m -84,101.7 v 0 m 0,-2.5 v 0 M 267.7,0.4 v 0 M 77.2,-19.5 v 0 m -37,119.1 v 0 M 20.3,0.4 v 0 m -19.8,0 v 0 m 0,79.3 v 0 m 247.3,0 v 0 m 19.9,19.9 v 0 m -332,14.9 v 0 m 168.6,-12.4 v 0 M 267.7,79.7 v 0 M 104.3,99.6 v 0 m -27.1,0 v 0 M 20.3,79.7 v 0 M 0,80.1 v 0 m 0,19.1 v 0 m 268.2,0 v 0 M 40.2,-19.5 v 0 m 228,99.6 v 0 M 228,99.6 v 0 m -227.5,0 v 0"
       style="fill:none;stroke:#000000;stroke-width:0.709;stroke-linecap:round;stroke-linejoin:round;stroke-miterlimit:10;stroke-dasharray:none;stroke-opacity:1"
       transform="matrix(1.3333333,0,0,-1.3333333,596,423.72)" />
    <path
       id="path3"
       d="m 0,0 v 79.4 m -19.9,0 V 19.9 m -242.8,0 v 59.5 m -19.9,0 V 0 m 19.9,19.9 v 59.5 m -19.9,0 V 0 M 0,0 v 79.4 m -19.9,0 V 19.9 M -275.4,0 v 19.9 m 0,0 h 0.1 0.1 0.1 0.1 0.1 m 0,0 V 0 m 103.8,59.5 V 0 m 0,0 v 15.9 m 163.9,4 V 0 m 0,0 h -0.1 -0.1 -0.1 -0.1 -0.1 m 0,19.9 H -10 m 0,0 h 0.4 0.3 0.4 0.3 0.4 0.3 0.3 0.4 m 0,0 h -0.1 -0.1 -0.1 -0.1 -0.1 m 0,0 v 0 h 0.1 0.1 0.1 0.1 0.1 m -267.7,0 h -0.1 -0.1 -0.1 -0.1 -0.1 m 0,0 V 0 m -64.3,0 V 79.4 M -255.1,0 h -19.8 m 0,0 h -0.1 -0.1 -0.1 -0.1 -0.1 m 0,0 h 0.1 0.1 0.1 0.1 0.1 m 0,0 h 103.8 M -7.2,0 h 1.7 1.5 1.4 1.1 0.8 0.5 H 0 -0.2 -0.7 -1.5 -2.6 -4 -5.5 -7.2 m -20.4,0 h 19.9 m 0,0 v 0 h 0.1 0.1 0.1 0.1 0.1 M 57.1,0 V 79.4 M -57.3,6 h 9.9 M 57.1,79.4 h -396.8 m 67,0 h -1.7 -1.7 -1.5 -1.4 -1.3 -1 -0.7 -0.4 -0.2 0.2 0.4 0.7 1 1.3 1.4 1.5 1.7 1.7 1.8 1.6 1.6 1.4 1.2 1 0.8 0.4 0.2 -0.2 -0.4 -0.8 -1 -1.2 -1.4 -1.6 -1.6 -1.8 m 329.8,0 h -396.8 m 329.7,0 h 1.8 1.6 1.6 1.4 1.2 1 0.8 0.4 0.2 -0.2 -0.4 -0.8 -1 -1.2 -1.4 -1.6 -1.6 -1.8 -1.7 -1.7 -1.5 -1.4 -1.3 -1 -0.7 -0.4 -0.2 0.2 0.4 0.7 1 1.3 1.4 1.5 1.7 1.7 M -84.4,15.9 h 9.9 M 57.1,0 V 79.4 M -111.6,59.5 h -3.9 -4.1 -4.2 -4.3 -4.4 -4.4 -4.4 -4.4 -4.4 -4.4 -4.3 -4.2 -4.1 -4 M -7.2,19.9 H -7.6 -7.9 -8.2 -8.6 -8.9 -9.3 -9.6 -10 m 0,0 h 2.3 M -111.6,15.9 -94.4,6 M -7.7,19.9 V 0 M -111.6,59.5 V 0 m 0,0 V 15.9 M -7.2,0 h -0.1 -0.1 -0.1 -0.1 -0.1 m 0,0 H -111.6 M -74.5,15.9 -57.3,6 M -27.6,0 H -7.7 M -27.6,19.9 V 0 m 0,19.9 V 0 m 0,19.9 H -10 m 0,0 h -1.7 -1.7 -1.5 -1.4 -1.3 -1 -0.7 -0.4 -0.2 0.2 0.4 0.7 1 1.3 1.4 1.5 1.7 1.7 m 0,0 H -47.4 M -111.6,0 h -3.9 -4.1 -4.2 -4.3 -4.4 -4.4 -4.4 -4.4 -4.4 -4.4 -4.3 -4.2 -4.1 -4 m 59.5,59.5 V 0 m -113.7,6 h -9.9 M -47.4,19.9 V 6 m -140.9,0 h -9.9 M -7.7,0 v 0 h 0.1 0.1 0.1 0.1 0.1 m 0,0 V 19.9 M -10,79.4 h 1.8 1.6 1.6 1.4 1.2 1 0.8 0.4 0.2 -0.2 -0.4 -0.8 -1 -1.2 -1.4 -1.6 -1.6 -1.8 -1.7 -1.7 -1.5 -1.4 -1.3 -1 -0.7 -0.4 -0.2 0.2 0.4 0.7 1 1.3 1.4 1.5 1.7 1.7 M -198.2,15.9 h -9.9 M -84.4,6 v 9.9 m -190.5,4 h 2.2 m 0,0 h 37.5 M -111.6,0 h -3.9 -4.1 -4.2 -4.3 -4.4 -4.4 -4.4 -4.4 -4.4 -4.4 -4.3 -4.2 -4.1 -4 m -27.1,6 v 9.9 m -37,4 V 6 m 64.1,9.9 -17.2,-9.9 m -86.6,13.9 V 0 m 19.8,19.9 h -17.6 m 0,0 h -2.2 m 39.7,0 V 6 m -40.2,13.9 h 0.3 0.4 0.3 0.4 0.3 0.3 0.4 0.3 m 0,0 h 1.8 1.6 1.6 1.4 1.2 1 0.8 0.4 0.2 -0.2 -0.4 -0.8 -1 -1.2 -1.4 -1.6 -1.6 -1.8 m 0,0 h -0.3 -0.4 -0.3 -0.3 -0.4 -0.3 -0.4 -0.3 m 0,-19.9 h -1.7 -1.6 -1.3 -1.1 -0.8 -0.5 -0.2 0.2 0.5 0.8 1.1 1.3 1.6 1.7 m 0,0 h -1.7 -1.6 -1.3 -1.1 -0.8 -0.5 -0.2 0.2 0.5 0.8 1.1 1.3 1.6 1.7 M 57.1,0 h -396.8 m 84.6,19.9 V 0 m -17.6,19.9 h -0.3 -0.4 -0.3 -0.3 -0.4 -0.3 -0.4 -0.3 m 20.3,0 h -17.6 M -275.4,0 h 0.1 0.1 0.1 0.1 0.1 m -0.5,19.9 h 0.3 0.4 0.3 0.4 0.3 0.3 0.4 0.3 m 0,0 h -2.2 m 0,0 h -0.1 -0.1 -0.1 -0.1 -0.1 m 2.7,0 h 1.8 1.6 1.6 1.4 1.2 1 0.8 0.4 0.2 -0.2 -0.4 -0.8 -1 -1.2 -1.4 -1.6 -1.6 -1.8 m 0,0 h 37.5 M -7.7,0 h -103.9 m 17.2,6 h 10 m -27.2,53.5 h -3.9 -4.1 -4.2 -4.3 -4.4 -4.4 -4.4 -4.4 -4.4 -4.4 -4.3 -4.2 -4.1 -4 m 0,0 V 0 M -10,19.9 h -37.4 m 0,0 V 6 M -7.7,19.9 H -10 m -265.4,0 h 0.1 0.1 0.1 0.1 0.1 m 267.7,0 h -0.1 -0.1 -0.1 -0.1 -0.1 m 0,0 V 0 M -27.6,19.9 H -10 m 0,0 h 2.3 m 0,0 V 0 m -267.2,19.9 h 2.2 M -171.1,0 v 15.9 m 0,0 -17.2,-9.9 m 0,0 h -9.9 m 0,0 v 9.9 M 57.1,0 h -396.8 m 0,0 v 79.4 m 84.6,-59.5 V 0 m 0,0 h -19.8 m 76.7,15.9 h -9.9 m -66.8,4 V 0 M -7.7,19.9 V 0 M -10,19.9 h 0.4 0.3 0.4 0.3 0.4 0.3 0.3 0.4 m 0,0 V 0 m 0,0 h 1.7 1.5 1.4 1.1 0.8 0.5 H 0 -0.2 -0.7 -1.5 -2.6 -4 -5.5 -7.2 m 0,0 v 19.9 m 0,0 H -7.6 -7.9 -8.2 -8.6 -8.9 -9.3 -9.6 -10 M -111.6,0 v 15.9 m 0,0 17.2,-9.9 m 0,0 h 10 m 0,0 v 9.9 m 76.7,4 v 0 h 0.1 0.1 0.1 0.1 0.1 M -274.9,0 h -0.1 -0.1 -0.1 -0.1 -0.1 m 191,15.9 h 9.9 m 0,0 17.2,-9.9 m 0,0 h 9.9 m -228,13.9 V 0 m 0,0 v 19.9 m 265.4,0 h -1.7 -1.7 -1.5 -1.4 -1.3 -1 -0.7 -0.4 -0.2 0.2 0.4 0.7 1 1.3 1.4 1.5 1.7 1.7 m -198.1,-4 -17.2,-9.9 m 17.2,9.9 -17.2,-9.9 m 0,0 h -9.9 m -39.7,13.9 V 0 m 0,0 h 103.8 m -101.6,79.4 h -1.7 -1.7 -1.5 -1.4 -1.3 -1 -0.7 -0.4 -0.2 0.2 0.4 0.7 1 1.3 1.4 1.5 1.7 1.7 1.8 1.6 1.6 1.4 1.2 1 0.8 0.4 0.2 -0.2 -0.4 -0.8 -1 -1.2 -1.4 -1.6 -1.6 -1.8"
       style="fill:none;stroke:#000000;stroke-width:0.709;stroke-linecap:round;stroke-linejoin:round;stroke-miterlimit:10;stroke-dasharray:none;stroke-opacity:1"
       transform="matrix(1.3333333,0,0,-1.3333333,963.2,761.18667)" />
    <path
       id="path4"
       d="m 0,0 v 0 m 0,-15.9 v 0 m -168.6,79.4 v 0 M -84,-15.9 v 0 m 312.2,79.4 v 0 M 113.8,-9.9 v 0 M 86.7,0 v 0 m -10,-9.9 v 0 M 59.5,43.6 v 0 M 59.5,0 V 0 M 0,43.6 v 0 M 123.7,-9.9 v 0 m -64.2,-6 v 0 m 0,0 v 0 M 96.6,0 v 0 m 46.9,-15.9 v 0 M 123.7,4 v 0 m 19.8,0 V 4 M -64.1,-9.9 v 0 m 46.9,0 v 0 m -9.9,0 v 0 M -37,0 v 0 m -17.2,-9.9 v 0 m 140.9,0 v 0 M 0,-15.9 v 0 M -27.1,0 v 0 m -37,4 v 0 m -104.5,-19.9 v 0 m 396.8,0 v 0 M -84,4 v 0"
       style="fill:none;stroke:#000000;stroke-width:0.709;stroke-linecap:round;stroke-linejoin:round;stroke-miterlimit:10;stroke-dasharray:none;stroke-opacity:1"
       transform="matrix(1.3333333,0,0,-1.3333333,735.06667,739.98667)" />
    <text
       id="text4"
       xml:space="preserve"
       transform="matrix(1.3333333,0,0,1.3333333,764.57019,229.40493)"><tspan
         style="font-variant:normal;font-weight:normal;font-stretch:normal;font-size:13.2283px;font-family:'Century Gothic';writing-mode:lr-tb;fill:#000000;fill-opacity:1;fill-rule:nonzero;stroke:none"
         x="0 7.3306842 14.661368 18.32671 25.657394 32.988079"
         y="0"
         sodipodi:role="line"
         id="tspan4">20.00 </tspan></text>
    <text
       id="text5"
       xml:space="preserve"
       transform="matrix(0,-1.3333333,1.3333333,0,468.65413,524.35528)"><tspan
         style="font-variant:normal;font-weight:normal;font-stretch:normal;font-size:13.2283px;font-family:'Century Gothic';writing-mode:lr-tb;fill:#000000;fill-opacity:1;fill-rule:nonzero;stroke:none"
         x="0 7.3306842 10.996026 18.32671 25.657394"
         y="0"
         sodipodi:role="line"
         id="tspan5">7.50 </tspan></text>
    <text
       id="text6"
       xml:space="preserve"
       transform="matrix(1.3333333,0,0,1.3333333,756.56939,503.42067)"><tspan
         style="font-variant:normal;font-weight:normal;font-stretch:normal;font-size:13.2283px;font-family:'Century Gothic';writing-mode:lr-tb;fill:#000000;fill-opacity:1;fill-rule:nonzero;stroke:none"
         x="0 7.3306842 10.996026 18.32671 25.657394 -146.04044 -138.70975 -135.0444 -127.71372 -120.38304"
         y="0"
         sodipodi:role="line"
         id="tspan6">3.00 1.00 </tspan></text>
    <path
       id="path6"
       d="M 0,0 V 0.5 L -0.1,1 -0.2,1.5 -0.4,1.9 -0.7,2.4 -1,2.8 -1.3,3.1 -1.7,3.5 -2.1,3.8 -2.5,4 -3,4.2 -3.5,4.3 -4,4.4 H -4.5 L -5,4.3 -5.5,4.2 -6,4.1 -6.4,3.9 -6.9,3.6 -7.3,3.3 -7.6,3 -7.9,2.6 -8.2,2.1 -8.4,1.7 -8.6,1.2 -8.7,0.7 -8.8,0.2 v -0.5 l 0.1,-0.5 0.1,-0.5 0.2,-0.4 0.2,-0.5 0.3,-0.4 0.3,-0.4 0.3,-0.4 0.4,-0.3 0.5,-0.2 0.4,-0.2 0.5,-0.2 0.5,-0.1 h 0.5 0.5 l 0.5,0.1 0.5,0.1 0.5,0.2 0.4,0.2 0.4,0.3 0.4,0.3 0.3,0.4 0.3,0.4 0.3,0.4 0.2,0.5 0.1,0.5 0.1,0.5 V 0 m -6.9,-6.3 5.1,12.6"
       style="fill:none;stroke:#000000;stroke-width:0.51;stroke-linecap:butt;stroke-linejoin:miter;stroke-miterlimit:10;stroke-dasharray:none;stroke-opacity:1"
       transform="matrix(1.3333333,0,0,-1.3333333,876.13333,496.78667)" />
    <text
       id="text7"
       xml:space="preserve"
       transform="matrix(1.3333333,0,0,1.3333333,880.0824,503.21853)"><tspan
         style="font-variant:normal;font-weight:normal;font-stretch:normal;font-size:13.2283px;font-family:'Century Gothic';writing-mode:lr-tb;fill:#000000;fill-opacity:1;fill-rule:nonzero;stroke:none"
         x="0 7.3306842 10.996026 18.32671 25.657394"
         y="0"
         sodipodi:role="line"
         id="tspan7">1.00 </tspan></text>
    <text
       id="text8"
       xml:space="preserve"
       transform="matrix(0,-1.3333333,1.3333333,0,468.65413,611.90088)"><tspan
         style="font-variant:normal;font-weight:normal;font-stretch:normal;font-size:13.2283px;font-family:'Century Gothic';writing-mode:lr-tb;fill:#000000;fill-opacity:1;fill-rule:nonzero;stroke:none"
         x="0 7.3306842 10.996026 18.32671 25.657394"
         y="0"
         sodipodi:role="line"
         id="tspan8">4.00 </tspan><tspan
         style="font-variant:normal;font-weight:normal;font-stretch:normal;font-size:13.2283px;font-family:'Century Gothic';writing-mode:lr-tb;fill:#000000;fill-opacity:1;fill-rule:nonzero;stroke:none"
         x="0 7.3306842 10.996026 18.32671 25.657394"
         y="227.85747"
         sodipodi:role="line"
         id="tspan9">3.00 </tspan><tspan
         style="font-variant:normal;font-weight:normal;font-stretch:normal;font-size:13.2283px;font-family:'Century Gothic';writing-mode:lr-tb;fill:#000000;fill-opacity:1;fill-rule:nonzero;stroke:none"
         x="0 7.3306842 10.996026 18.32671 25.657394"
         y="289.32938"
         sodipodi:role="line"
         id="tspan10">0.80 </tspan><tspan
         style="font-variant:normal;font-weight:normal;font-stretch:normal;font-size:13.2283px;font-family:'Century Gothic';writing-mode:lr-tb;fill:#000000;fill-opacity:1;fill-rule:nonzero;stroke:none"
         x="0 7.3306842 10.996026 18.32671 25.657394"
         y="314.48959"
         sodipodi:role="line"
         id="tspan11">0.30 </tspan><tspan
         style="font-variant:normal;font-weight:normal;font-stretch:normal;font-size:13.2283px;font-family:'Century Gothic';writing-mode:lr-tb;fill:#000000;fill-opacity:1;fill-rule:nonzero;stroke:none"
         x="0 7.3306842 10.996026 18.32671 25.657394"
         y="333.77646"
         sodipodi:role="line"
         id="tspan12">1.00 </tspan></text>
    <text
       id="text12"
       xml:space="preserve"
       transform="matrix(1.3277336,0.1220711,-0.1220711,1.3277336,651.8906,727.39221)"><tspan
         style="font-variant:normal;font-weight:normal;font-stretch:normal;font-size:13.2284px;font-family:'Century Gothic';writing-mode:lr-tb;fill:#000000;fill-opacity:1;fill-rule:nonzero;stroke:none"
         x="0 7.3302832 14.660566 19.95319"
         y="0"
         sodipodi:role="line"
         id="tspan13">30° </tspan></text>
    <text
       id="text13"
       xml:space="preserve"
       transform="matrix(1.3333333,0,0,1.3333333,621.76872,613.64347)"><tspan
         style="font-variant:normal;font-weight:normal;font-stretch:normal;font-size:13.2283px;font-family:'Century Gothic';writing-mode:lr-tb;fill:#000000;fill-opacity:1;fill-rule:nonzero;stroke:none"
         x="0 7.3306842 10.996026 18.32671 25.657394"
         y="0"
         sodipodi:role="line"
         id="tspan14">0.50 </tspan></text>
    <path
       id="path14"
       d="M 0,0 -1.1,-9.4 -3.9,-8.7 0,0 m -2.1,7.8 -7.6,5.5 2,2.1 5.6,-7.6 M 0,0 v 1 l -0.1,1 -0.2,1 -0.2,1 -0.3,1 -0.4,0.9 -0.4,1 -0.5,0.9 m -5.2,-21.1 0.8,0.6 0.8,0.6 0.7,0.6 0.7,0.7 0.7,0.8 0.6,0.7 0.6,0.8 0.5,0.9 0.4,0.9 0.4,0.9 0.3,0.9 0.3,1 0.2,0.9 0.2,1 0.1,1 v 1 m -2.1,7.8 -0.5,0.8 -0.5,0.8 -0.6,0.7 -0.7,0.8 -0.7,0.6 -0.7,0.7 -0.8,0.5 -0.8,0.6 -0.8,0.5 -0.9,0.4 -0.9,0.4 -0.9,0.3 -1,0.2 -0.9,0.2 -1,0.2 -0.9,0.1 h -1 -1 l -0.9,-0.1 -1,-0.2 -0.9,-0.2 -0.9,-0.3 -1,-0.3 -0.8,-0.4 -0.9,-0.4 -0.8,-0.5 -0.8,-0.6"
       style="fill:none;stroke:#000000;stroke-width:0.51;stroke-linecap:butt;stroke-linejoin:miter;stroke-miterlimit:10;stroke-dasharray:none;stroke-opacity:1"
       transform="matrix(1.3333333,0,0,-1.3333333,683.6,753.18667)" />
    <path
       id="path15"
       d="M 0,0 9.4,1.4 V -1.4 L 0,0 m -59.5,0 -9.3,-1.4 V 1.4 L -59.5,0"
       style="fill:none;stroke:#000000;stroke-width:0.51;stroke-linecap:butt;stroke-linejoin:miter;stroke-miterlimit:10;stroke-dasharray:none;stroke-opacity:1"
       transform="matrix(1.3333333,0,0,-1.3333333,814.4,507.32)" />
    <path
       id="path16"
       d="M 0,0 -9.3,-1.4 V 1.4 L 0,0 m 19.9,0 9.3,1.4 V -1.4 L 19.9,0"
       style="fill:none;stroke:#000000;stroke-width:0.51;stroke-linecap:butt;stroke-linejoin:miter;stroke-miterlimit:10;stroke-dasharray:none;stroke-opacity:1"
       transform="matrix(1.3333333,0,0,-1.3333333,623.06667,507.32)" />
    <path
       id="path17"
       d="M 0,0 -9.4,-1.4 V 1.5 L 0,0 m -396.8,0 9.3,1.5 v -2.9 l -9.3,1.4"
       style="fill:none;stroke:#000000;stroke-width:0.51;stroke-linecap:butt;stroke-linejoin:miter;stroke-miterlimit:10;stroke-dasharray:none;stroke-opacity:1"
       transform="matrix(1.3333333,0,0,-1.3333333,1039.3333,233.32)" />
    <path
       id="path18"
       d="M 0,0 9.4,1.5 V -1.4 L 0,0 m -9.9,0 -9.4,-1.4 V 1.5 L -9.9,0"
       style="fill:none;stroke:#000000;stroke-width:0.51;stroke-linecap:butt;stroke-linejoin:miter;stroke-miterlimit:10;stroke-dasharray:none;stroke-opacity:1"
       transform="matrix(1.3333333,0,0,-1.3333333,698.93333,617.58667)" />
    <path
       id="path19"
       d="M 0,0 -1.4,9.4 H 1.5 L 0,0 M 0,79.4 1.5,70 H -1.4 L 0,79.4 M 314.5,0 l 1.4,-9.3 h -2.8 l 1.4,9.3 m 0,6 -1.4,9.3 h 2.8 L 314.5,6"
       style="fill:none;stroke:#000000;stroke-width:0.51;stroke-linecap:butt;stroke-linejoin:miter;stroke-miterlimit:10;stroke-dasharray:none;stroke-opacity:1"
       transform="matrix(1.3333333,0,0,-1.3333333,472.4,761.18667)" />
    <path
       id="path20"
       d="M 0,0 1.5,-9.4 H -1.4 L 0,0 m 0,-148.9 -1.4,9.4 H 1.5 L 0,-148.9 m 227.9,-159.2 1.4,-9.3 h -2.9 l 1.5,9.3 m 0,-59.5 -1.5,9.4 h 2.9 l -1.4,-9.4 m 61.4,15.9 -1.4,9.4 h 2.9 l -1.5,-9.4 m 0,-15.9 1.5,-9.3 h -2.9 l 1.4,9.3 m 44.5,19.9 -1.5,9.3 h 2.9 l -1.4,-9.3 m 0,-19.9 1.4,-9.3 h -2.9 l 1.5,9.3"
       style="fill:none;stroke:#000000;stroke-width:0.51;stroke-linecap:butt;stroke-linejoin:miter;stroke-miterlimit:10;stroke-dasharray:none;stroke-opacity:1"
       transform="matrix(1.3333333,0,0,-1.3333333,472.4,271.05333)" />
    <path
       id="path21"
       d="M 0,0 H 15.7"
       style="fill:none;stroke:#000000;stroke-width:0.51;stroke-linecap:round;stroke-linejoin:round;stroke-miterlimit:10;stroke-dasharray:none;stroke-opacity:1"
       transform="matrix(1.3333333,0,0,-1.3333333,666.53333,753.18667)" />
    <path
       id="path22"
       d="M 0,0 V -40.7 M -59.5,0 V -40.7 M 0,-37.9 h 18 m -18,0 h -59.5 m 0,0 h -18"
       style="fill:none;stroke:#000000;stroke-width:0.51;stroke-linecap:round;stroke-linejoin:round;stroke-miterlimit:10;stroke-dasharray:none;stroke-opacity:1"
       transform="matrix(1.3333333,0,0,-1.3333333,814.4,456.78667)" />
    <path
       id="path23"
       d="m 0,0 v -63 m 19.9,43.2 V -63 M 0,-60.2 h -49.6 m 49.6,0 h 19.9 m 0,0 h 18 M 235.2,-9.9 V -63 m 19.9,53.1 V -63 m -19.9,2.8 h -61.1 m 61.1,0 h 19.9 m 0,0 h 18 m -37.9,0 -9.3,-1.4 m 0,0 v 2.8 m 0,0 9.3,-1.4 m 19.9,0 9.3,1.4 m 0,0 v -2.8 m 0,0 -9.3,1.4"
       style="fill:none;stroke:#000000;stroke-width:0.51;stroke-linecap:round;stroke-linejoin:round;stroke-miterlimit:10;stroke-dasharray:none;stroke-opacity:1"
       transform="matrix(1.3333333,0,0,-1.3333333,623.06667,427.05333)" />
    <path
       id="path24"
       d="M 0,0 V 28.3 M -396.8,0 V 28.3 M 0,25.5 h -396.8"
       style="fill:none;stroke:#000000;stroke-width:0.51;stroke-linecap:round;stroke-linejoin:round;stroke-miterlimit:10;stroke-dasharray:none;stroke-opacity:1"
       transform="matrix(1.3333333,0,0,-1.3333333,1039.3333,267.32)" />
    <path
       id="path25"
       d="M 0,0 V 91.9 M -9.9,0 V 91.9 M 0,89 H 18 M 0,89 h -9.9 m 0,0 h -51.7"
       style="fill:none;stroke:#000000;stroke-width:0.51;stroke-linecap:round;stroke-linejoin:round;stroke-miterlimit:10;stroke-dasharray:none;stroke-opacity:1"
       transform="matrix(1.3333333,0,0,-1.3333333,698.93333,736.25333)" />
    <path
       id="path26"
       d="M 0,0 H -28.3 M 0,79.4 H -28.3 M -25.5,0 v 79.4 m 0,0 v 61.8 M 289,0 v -18 m 0,18 v 6 m 0,0 v 135.2"
       style="fill:none;stroke:#000000;stroke-width:0.51;stroke-linecap:round;stroke-linejoin:round;stroke-miterlimit:10;stroke-dasharray:none;stroke-opacity:1"
       transform="matrix(1.3333333,0,0,-1.3333333,506.4,761.18667)" />
    <path
       id="path27"
       d="M 0,0 H -28.3 M 0,-148.9 H -28.3 M -25.5,0 v -148.9 m 0,0 v -44.8 m 227.9,-114.4 v 81.7 m 0,-81.7 v -59.5 m 61.4,15.9 v 125.3 m 0,-125.3 v -15.9 m 0,0 v -18 m 44.5,37.9 v 121.3 m 0,-121.3 v -19.9 m 0,0 v -18"
       style="fill:none;stroke:#000000;stroke-width:0.51;stroke-linecap:round;stroke-linejoin:round;stroke-miterlimit:10;stroke-dasharray:none;stroke-opacity:1"
       transform="matrix(1.3333333,0,0,-1.3333333,506.4,271.05333)" />
    <path
       id="path28"
       d="m 0,0 -1.1,-9.4 -2.8,0.7 m 1.8,16.5 -7.6,5.5 2,2.1"
       style="fill:#000000;fill-opacity:1;fill-rule:nonzero;stroke:none"
       transform="matrix(1.3333333,0,0,-1.3333333,683.6,753.18667)" />
    <path
       id="path29"
       d="M 0,0 9.4,1.4 V -1.4 M -59.5,0 -68.8,-1.4 v 2.8"
       style="fill:#000000;fill-opacity:1;fill-rule:nonzero;stroke:none"
       transform="matrix(1.3333333,0,0,-1.3333333,814.4,507.32)" />
    <path
       id="path30"
       d="M 0,0 -9.3,-1.4 V 1.4 M 19.9,0 29.2,1.4 v -2.8"
       style="fill:#000000;fill-opacity:1;fill-rule:nonzero;stroke:none"
       transform="matrix(1.3333333,0,0,-1.3333333,623.06667,507.32)" />
    <path
       id="path31"
       d="M 0,0 -9.4,-1.4 V 1.5 M -396.8,0 l 9.3,1.5 v -2.9"
       style="fill:#000000;fill-opacity:1;fill-rule:nonzero;stroke:none"
       transform="matrix(1.3333333,0,0,-1.3333333,1039.3333,233.32)" />
    <path
       id="path32"
       d="M 0,0 9.4,1.5 V -1.4 M -9.9,0 -19.3,-1.4 v 2.9"
       style="fill:#000000;fill-opacity:1;fill-rule:nonzero;stroke:none"
       transform="matrix(1.3333333,0,0,-1.3333333,698.93333,617.58667)" />
    <path
       id="path33"
       d="M 0,0 -1.4,9.4 H 1.5 M 0,79.4 1.5,70 h -2.9 m 315.9,-70 1.4,-9.3 h -2.8 m 1.4,15.3 -1.4,9.3 h 2.8"
       style="fill:#000000;fill-opacity:1;fill-rule:nonzero;stroke:none"
       transform="matrix(1.3333333,0,0,-1.3333333,472.4,761.18667)" />
    <path
       id="path34"
       d="m 0,0 1.5,-9.4 h -2.9 m 1.4,-139.5 -1.4,9.4 h 2.9 m 226.4,-168.6 1.4,-9.3 h -2.9 m 1.5,-50.2 -1.5,9.4 h 2.9 m 60,6.5 -1.4,9.4 h 2.9 m -1.5,-25.3 1.5,-9.3 h -2.9 m 45.9,29.2 -1.5,9.3 h 2.9 m -1.4,-29.2 1.4,-9.3 h -2.9"
       style="fill:#000000;fill-opacity:1;fill-rule:nonzero;stroke:none"
       transform="matrix(1.3333333,0,0,-1.3333333,472.4,271.05333)" />
    <text
       id="text34"
       xml:space="preserve"
       transform="matrix(1.3333333,0,0,1.3333333,79.370133,1109.9415)"><tspan
         style="font-variant:normal;font-weight:bold;font-stretch:normal;font-size:11.564px;font-family:'Segoe UI';writing-mode:lr-tb;fill:#000000;fill-opacity:1;fill-rule:nonzero;stroke:none"
         x="0 6.4874039 15.252916 21.162121 24.827908 33.350574 44.972397 53.737907 61.2892 68.794235 75.281639 78.473305 84.625351 91.78347 98.779686 104.33041 110.55184 115.05024 118.33441 125.40002 132.39624 138.61766 141.90184 145.09351 152.1938 156.79628 163.86188 171.01999 178.01622 183.56694 188.06534 191.19917 194.39084 200.40411 207.46973 212.07219 215.26385 218.92964 225.92587 231.01402 235.51242 240.1149 247.11111 252.66183 257.16022 260.4444 267.51001 274.50623 280.72766 284.01184 287.20349 295.56427 300.65244 306.90857 310.10022 318.86572 325.86197 329.14612 335.36755"
         y="0"
         sodipodi:role="line"
         id="tspan34">SOLIDWORKS Educational Product. For Instructional Use Only.</tspan></text>
  </g>
</svg>
